0
SECTION
2
HEADER
9
$ACADVER
1
AC1021
9
$LASTSAVEDBY
1
@tarikjabiri/dxf
9
$HANDSEED
5
5B
9
$INSUNITS
70
0
9
$CLAYER
8
0
9
$TEXTSTYLE
3
Arial
4

40
0
41
1
42
1
50
0
70
0
71
0
9
$VIEWCTR
10
3.0970000000000084
20
2.6214999999999975
0
ENDSEC
0
SECTION
2
CLASSES
0
ENDSEC
0
SECTION
2
TABLES
0
TABLE
2
VPORT
5
1
330
0
100
AcDbSymbolTable
70
1
0
VPORT
5
19
330
1
100
AcDbSymbolTableRecord
100
AcDbViewportTableRecord
2
*Active
70
0
10
0
20
0
11
1
21
1
12
3.0970000000000084
22
2.6214999999999975
13
0
23
0
14
10
24
10
15
10
25
10
16
0
26
0
36
1
17
0
27
0
37
0
40
203.015
41
2
42
50
43
0
44
0
50
0
51
0
71
0
72
100
73
1
74
3
75
0
76
1
77
0
78
0
281
0
65
1
110
0
120
0
130
0
111
1
121
0
131
0
112
0
122
1
132
0
79
0
146
0
348
10020
60
7
61
5
292
1
282
1
141
0
142
0
63
250
421
3358443
0
ENDTAB
0
TABLE
2
LTYPE
5
2
330
0
100
AcDbSymbolTable
70
3
0
LTYPE
5
12
330
2
100
AcDbSymbolTableRecord
100
AcDbLinetypeTableRecord
2
ByBlock
70
0
3

72
65
73
0
40
0
0
LTYPE
5
13
330
2
100
AcDbSymbolTableRecord
100
AcDbLinetypeTableRecord
2
ByLayer
70
0
3

72
65
73
0
40
0
0
LTYPE
5
14
330
2
100
AcDbSymbolTableRecord
100
AcDbLinetypeTableRecord
2
Continuous
70
0
3
Solid line
72
65
73
0
40
0
0
ENDTAB
0
TABLE
2
LAYER
5
3
330
0
100
AcDbSymbolTable
70
5
0
LAYER
5
15
330
3
100
AcDbSymbolTableRecord
100
AcDbLayerTableRecord
2
0
70
0
62
7
6
Continuous
370
0
390
0
0
LAYER
5
1A
330
3
100
AcDbSymbolTableRecord
100
AcDbLayerTableRecord
2
WENTCAD_OBRYSY
70
0
62
7
6
Continuous
370
0
390
0
0
LAYER
5
1B
330
3
100
AcDbSymbolTableRecord
100
AcDbLayerTableRecord
2
WENTCAD_KADRY
70
0
62
3
6
Continuous
370
0
390
0
0
LAYER
5
1C
330
3
100
AcDbSymbolTableRecord
100
AcDbLayerTableRecord
2
WENTCAD_METKI_RAMKI
70
0
62
7
6
Continuous
370
0
390
0
0
LAYER
5
1D
330
3
100
AcDbSymbolTableRecord
100
AcDbLayerTableRecord
2
WENTCAD_METKI_TEKST
70
0
62
7
6
Continuous
370
0
390
0
0
ENDTAB
0
TABLE
2
STYLE
5
4
330
0
100
AcDbSymbolTable
70
1
0
STYLE
5
16
330
4
100
AcDbSymbolTableRecord
100
AcDbTextStyleTableRecord
2
Standard
70
0
40
0
41
1
50
0
71
0
42
1
3
txt
4

0
ENDTAB
0
TABLE
2
VIEW
5
5
330
0
100
AcDbSymbolTable
70
0
0
ENDTAB
0
TABLE
2
UCS
5
6
330
0
100
AcDbSymbolTable
70
0
0
ENDTAB
0
TABLE
2
APPID
5
7
330
0
100
AcDbSymbolTable
70
1
0
APPID
5
17
330
7
100
AcDbSymbolTableRecord
100
AcDbRegAppTableRecord
2
ACAD
70
0
0
ENDTAB
0
TABLE
2
DIMSTYLE
5
8
330
0
100
AcDbSymbolTable
70
1
100
AcDbDimStyleTable
0
DIMSTYLE
105
18
330
8
100
AcDbSymbolTableRecord
100
AcDbDimStyleTableRecord
2
Standard
70
0
340
16
0
ENDTAB
0
TABLE
2
BLOCK_RECORD
5
9
330
0
100
AcDbSymbolTable
70
2
0
BLOCK_RECORD
5
C
330
9
100
AcDbSymbolTableRecord
100
AcDbBlockTableRecord
2
*Model_Space
70
0
280
1
281
0
0
BLOCK_RECORD
5
F
330
9
100
AcDbSymbolTableRecord
100
AcDbBlockTableRecord
2
*Paper_Space
70
0
280
1
281
0
0
ENDTAB
0
ENDSEC
0
SECTION
2
BLOCKS
0
BLOCK
5
D
330
C
100
AcDbEntity
8
0
100
AcDbBlockBegin
2
*Model_Space
70
0
10
0
20
0
30
0
3
*Model_Space
1

0
ENDBLK
5
E
100
AcDbEntity
8
0
100
AcDbBlockEnd
0
BLOCK
5
10
330
F
100
AcDbEntity
8
0
100
AcDbBlockBegin
2
*Paper_Space
70
0
10
0
20
0
30
0
3
*Paper_Space
1

0
ENDBLK
5
11
100
AcDbEntity
8
0
100
AcDbBlockEnd
0
ENDSEC
0
SECTION
2
ENTITIES
0
LINE
5
1E
330
C
100
AcDbEntity
8
WENTCAD_KADRY
100
AcDbLine
10
-4.168
20
8.402
30
0
11
17.032
21
8.402
31
0
0
LINE
5
1F
330
C
100
AcDbEntity
8
WENTCAD_KADRY
100
AcDbLine
10
17.032
20
8.402
30
0
11
17.032
21
-7.235
31
0
0
LINE
5
20
330
C
100
AcDbEntity
8
WENTCAD_KADRY
100
AcDbLine
10
17.032
20
-7.235
30
0
11
-4.168
21
-7.235
31
0
0
LINE
5
21
330
C
100
AcDbEntity
8
WENTCAD_KADRY
100
AcDbLine
10
-4.168
20
-7.235
30
0
11
-4.168
21
8.402
31
0
0
LINE
5
22
330
C
100
AcDbEntity
8
WENTCAD_OBRYSY
100
AcDbLine
10
3.165
20
0.062
30
0
11
3.16
21
2.581
31
0
0
LINE
5
23
330
C
100
AcDbEntity
8
WENTCAD_OBRYSY
100
AcDbLine
10
3.16
20
2.581
30
0
11
2.44
21
2.58
31
0
0
LINE
5
24
330
C
100
AcDbEntity
8
WENTCAD_OBRYSY
100
AcDbLine
10
2.44
20
2.58
30
0
11
2.442
21
1.641
31
0
0
LINE
5
25
330
C
100
AcDbEntity
8
WENTCAD_OBRYSY
100
AcDbLine
10
2.442
20
1.641
30
0
11
1.173
21
1.64
31
0
0
LINE
5
26
330
C
100
AcDbEntity
8
WENTCAD_OBRYSY
100
AcDbLine
10
1.173
20
1.64
30
0
11
1.174
21
1.53
31
0
0
LINE
5
27
330
C
100
AcDbEntity
8
WENTCAD_OBRYSY
100
AcDbLine
10
1.174
20
1.53
30
0
11
1.034
21
1.529
31
0
0
LINE
5
28
330
C
100
AcDbEntity
8
WENTCAD_OBRYSY
100
AcDbLine
10
1.034
20
1.529
30
0
11
1.035
21
0.83
31
0
0
LINE
5
29
330
C
100
AcDbEntity
8
WENTCAD_OBRYSY
100
AcDbLine
10
1.035
20
0.83
30
0
11
0.795
21
0.78
31
0
0
LINE
5
2A
330
C
100
AcDbEntity
8
WENTCAD_OBRYSY
100
AcDbLine
10
0.795
20
0.78
30
0
11
0.286
21
0.779
31
0
0
LINE
5
2B
330
C
100
AcDbEntity
8
WENTCAD_OBRYSY
100
AcDbLine
10
0.286
20
0.779
30
0
11
0.287
21
0.06
31
0
0
LINE
5
2C
330
C
100
AcDbEntity
8
WENTCAD_OBRYSY
100
AcDbLine
10
0.287
20
0.06
30
0
11
3.165
21
0.062
31
0
0
LINE
5
2D
330
C
100
AcDbEntity
8
WENTCAD_METKI_RAMKI
100
AcDbLine
10
-0.11499999999999999
20
0.834
30
0
11
3.205
21
0.834
31
0
0
LINE
5
2E
330
C
100
AcDbEntity
8
WENTCAD_METKI_RAMKI
100
AcDbLine
10
3.205
20
0.834
30
0
11
3.205
21
1.714
31
0
0
LINE
5
2F
330
C
100
AcDbEntity
8
WENTCAD_METKI_RAMKI
100
AcDbLine
10
3.205
20
1.714
30
0
11
-0.11499999999999999
21
1.714
31
0
0
LINE
5
30
330
C
100
AcDbEntity
8
WENTCAD_METKI_RAMKI
100
AcDbLine
10
-0.11499999999999999
20
1.714
30
0
11
-0.11499999999999999
21
0.834
31
0
0
TEXT
5
31
330
C
100
AcDbEntity
8
WENTCAD_METKI_TEKST
100
AcDbText
10
0.035
20
1.1139999999999999
30
0
40
0.2
1
003 Pomieszczenie
A: 4.57 m²
7
STANDARD
100
AcDbText
0
TEXT
5
32
330
C
100
AcDbEntity
8
WENTCAD_METKI_TEKST
100
AcDbText
10
0.035
20
1.474
30
0
40
0.2
1
Vn: 18 m³/h
Vw: 18 m³/h
7
STANDARD
100
AcDbText
0
LINE
5
33
330
C
100
AcDbEntity
8
WENTCAD_OBRYSY
100
AcDbLine
10
8.884
20
2.876
30
0
11
6.007
21
2.873
31
0
0
LINE
5
34
330
C
100
AcDbEntity
8
WENTCAD_OBRYSY
100
AcDbLine
10
6.007
20
2.873
30
0
11
6.013
21
0.065
31
0
0
LINE
5
35
330
C
100
AcDbEntity
8
WENTCAD_OBRYSY
100
AcDbLine
10
6.013
20
0.065
30
0
11
8.89
21
0.068
31
0
0
LINE
5
36
330
C
100
AcDbEntity
8
WENTCAD_OBRYSY
100
AcDbLine
10
8.89
20
0.068
30
0
11
8.884
21
2.876
31
0
0
LINE
5
37
330
C
100
AcDbEntity
8
WENTCAD_METKI_RAMKI
100
AcDbLine
10
6.0089999999999995
20
1.0299999999999998
30
0
11
8.889
21
1.0299999999999998
31
0
0
LINE
5
38
330
C
100
AcDbEntity
8
WENTCAD_METKI_RAMKI
100
AcDbLine
10
8.889
20
1.0299999999999998
30
0
11
8.889
21
1.91
31
0
0
LINE
5
39
330
C
100
AcDbEntity
8
WENTCAD_METKI_RAMKI
100
AcDbLine
10
8.889
20
1.91
30
0
11
6.0089999999999995
21
1.91
31
0
0
LINE
5
3A
330
C
100
AcDbEntity
8
WENTCAD_METKI_RAMKI
100
AcDbLine
10
6.0089999999999995
20
1.91
30
0
11
6.0089999999999995
21
1.0299999999999998
31
0
0
TEXT
5
3B
330
C
100
AcDbEntity
8
WENTCAD_METKI_TEKST
100
AcDbText
10
6.159
20
1.3099999999999998
30
0
40
0.2
1
006 Pok\U+00F3j
A: 8.08 m²
7
STANDARD
100
AcDbText
0
TEXT
5
3C
330
C
100
AcDbEntity
8
WENTCAD_METKI_TEKST
100
AcDbText
10
6.159
20
1.67
30
0
40
0.2
1
Vn: 32 m³/h
Vw: 32 m³/h
7
STANDARD
100
AcDbText
0
LINE
5
3D
330
C
100
AcDbEntity
8
WENTCAD_OBRYSY
100
AcDbLine
10
4.538
20
3.012
30
0
11
4.532
21
5.77
31
0
0
LINE
5
3E
330
C
100
AcDbEntity
8
WENTCAD_OBRYSY
100
AcDbLine
10
4.532
20
5.77
30
0
11
0.275
21
5.766
31
0
0
LINE
5
3F
330
C
100
AcDbEntity
8
WENTCAD_OBRYSY
100
AcDbLine
10
0.275
20
5.766
30
0
11
0.281
21
3.008
31
0
0
LINE
5
40
330
C
100
AcDbEntity
8
WENTCAD_OBRYSY
100
AcDbLine
10
0.281
20
3.008
30
0
11
1.61
21
3.009
31
0
0
LINE
5
41
330
C
100
AcDbEntity
8
WENTCAD_OBRYSY
100
AcDbLine
10
1.61
20
3.009
30
0
11
3.299
21
3.011
31
0
0
LINE
5
42
330
C
100
AcDbEntity
8
WENTCAD_OBRYSY
100
AcDbLine
10
3.299
20
3.011
30
0
11
4.538
21
3.012
31
0
0
LINE
5
43
330
C
100
AcDbEntity
8
WENTCAD_METKI_RAMKI
100
AcDbLine
10
0.982
20
3.489
30
0
11
3.862
21
3.489
31
0
0
LINE
5
44
330
C
100
AcDbEntity
8
WENTCAD_METKI_RAMKI
100
AcDbLine
10
3.862
20
3.489
30
0
11
3.862
21
4.369
31
0
0
LINE
5
45
330
C
100
AcDbEntity
8
WENTCAD_METKI_RAMKI
100
AcDbLine
10
3.862
20
4.369
30
0
11
0.982
21
4.369
31
0
0
LINE
5
46
330
C
100
AcDbEntity
8
WENTCAD_METKI_RAMKI
100
AcDbLine
10
0.982
20
4.369
30
0
11
0.982
21
3.489
31
0
0
TEXT
5
47
330
C
100
AcDbEntity
8
WENTCAD_METKI_TEKST
100
AcDbText
10
1.132
20
3.769
30
0
40
0.2
1
004 Pok\U+00F3j
A: 11.74 m²
7
STANDARD
100
AcDbText
0
TEXT
5
48
330
C
100
AcDbEntity
8
WENTCAD_METKI_TEKST
100
AcDbText
10
1.132
20
4.129
30
0
40
0.2
1
Vn: 46 m³/h
Vw: 46 m³/h
7
STANDARD
100
AcDbText
0
LINE
5
49
330
C
100
AcDbEntity
8
WENTCAD_OBRYSY
100
AcDbLine
10
4.581
20
1.473
30
0
11
5.87
21
1.474
31
0
0
LINE
5
4A
330
C
100
AcDbEntity
8
WENTCAD_OBRYSY
100
AcDbLine
10
5.87
20
1.474
30
0
11
5.867
21
2.873
31
0
0
LINE
5
4B
330
C
100
AcDbEntity
8
WENTCAD_OBRYSY
100
AcDbLine
10
5.867
20
2.873
30
0
11
4.778
21
2.872
31
0
0
LINE
5
4C
330
C
100
AcDbEntity
8
WENTCAD_OBRYSY
100
AcDbLine
10
4.778
20
2.872
30
0
11
4.778
21
2.592
31
0
0
LINE
5
4D
330
C
100
AcDbEntity
8
WENTCAD_OBRYSY
100
AcDbLine
10
4.778
20
2.592
30
0
11
4.579
21
2.592
31
0
0
LINE
5
4E
330
C
100
AcDbEntity
8
WENTCAD_OBRYSY
100
AcDbLine
10
4.579
20
2.592
30
0
11
4.478
21
2.592
31
0
0
LINE
5
4F
330
C
100
AcDbEntity
8
WENTCAD_OBRYSY
100
AcDbLine
10
4.478
20
2.592
30
0
11
4.478
21
2.872
31
0
0
LINE
5
50
330
C
100
AcDbEntity
8
WENTCAD_OBRYSY
100
AcDbLine
10
4.478
20
2.872
30
0
11
3.299
21
2.871
31
0
0
LINE
5
51
330
C
100
AcDbEntity
8
WENTCAD_OBRYSY
100
AcDbLine
10
3.299
20
2.871
30
0
11
3.3
21
2.591
31
0
0
LINE
5
52
330
C
100
AcDbEntity
8
WENTCAD_OBRYSY
100
AcDbLine
10
3.3
20
2.591
30
0
11
3.305
21
0.062
31
0
0
LINE
5
53
330
C
100
AcDbEntity
8
WENTCAD_OBRYSY
100
AcDbLine
10
3.305
20
0.062
30
0
11
4.584
21
0.064
31
0
0
LINE
5
54
330
C
100
AcDbEntity
8
WENTCAD_OBRYSY
100
AcDbLine
10
4.584
20
0.064
30
0
11
4.581
21
1.473
31
0
0
LINE
5
55
330
C
100
AcDbEntity
8
WENTCAD_METKI_RAMKI
100
AcDbLine
10
2.8909999999999996
20
1.637
30
0
11
6.090999999999999
21
1.637
31
0
0
LINE
5
56
330
C
100
AcDbEntity
8
WENTCAD_METKI_RAMKI
100
AcDbLine
10
6.090999999999999
20
1.637
30
0
11
6.090999999999999
21
2.5170000000000003
31
0
0
LINE
5
57
330
C
100
AcDbEntity
8
WENTCAD_METKI_RAMKI
100
AcDbLine
10
6.090999999999999
20
2.5170000000000003
30
0
11
2.8909999999999996
21
2.5170000000000003
31
0
0
LINE
5
58
330
C
100
AcDbEntity
8
WENTCAD_METKI_RAMKI
100
AcDbLine
10
2.8909999999999996
20
2.5170000000000003
30
0
11
2.8909999999999996
21
1.637
31
0
0
TEXT
5
59
330
C
100
AcDbEntity
8
WENTCAD_METKI_TEKST
100
AcDbText
10
3.0409999999999995
20
1.917
30
0
40
0.2
1
002 Komunikacja
A: 5.31 m²
7
STANDARD
100
AcDbText
0
TEXT
5
5A
330
C
100
AcDbEntity
8
WENTCAD_METKI_TEKST
100
AcDbText
10
3.0409999999999995
20
2.277
30
0
40
0.2
1
Vn: 21 m³/h
Vw: 21 m³/h
7
STANDARD
100
AcDbText
0
ENDSEC
0
SECTION
2
OBJECTS
0
DICTIONARY
5
A
330
0
100
AcDbDictionary
281
1
3
ACAD_GROUP
350
B
0
DICTIONARY
5
B
330
A
100
AcDbDictionary
281
0
0
ENDSEC
0
EOF